<?xml version="1.0" encoding="UTF-8"?>
<svg id="Layer_2" data-name="Layer 2" xmlns="http://www.w3.org/2000/svg" viewBox="0 0 920 386.4">
  <defs>
    <style>
      .cls-1 {
        fill: #000;
        stroke-width: 0px;
      }
    </style>
  </defs>
  <g id="Layer_1-2" data-name="Layer 1">
    <g>
      <path class="cls-1" d="M460,0c-35.57,128.8-64.4,157.63-193.2,193.2,128.8,35.57,157.63,64.4,193.2,193.2,35.57-128.8,64.4-157.63,193.2-193.2C524.4,157.63,495.57,128.8,460,0ZM460,220.8c-15.24,0-27.6-12.36-27.6-27.6s12.36-27.6,27.6-27.6,27.6,12.36,27.6,27.6-12.36,27.6-27.6,27.6Z"/>
      <path class="cls-1" d="M223.1,193.2c0,68.3,28.89,129.83,75.13,173.07C181.44,336.57,78.38,275.47,0,193.2,78.38,110.93,181.44,49.83,298.23,20.13c-46.24,43.24-75.13,104.77-75.13,173.07Z"/>
      <path class="cls-1" d="M920,193.2c-78.38,82.27-181.44,143.37-298.23,173.07,46.24-43.24,75.13-104.77,75.13-173.07s-28.89-129.83-75.13-173.07c116.78,29.7,219.84,90.8,298.23,173.07Z"/>
    </g>
  </g>
</svg>