<?xml version="1.0" encoding="UTF-8"?>
<svg id="Layer_2" data-name="Layer 2" xmlns="http://www.w3.org/2000/svg" viewBox="0 0 920 346.14">
  <defs>
    <style>
      .cls-1 {
        fill: #4468ca;
        stroke-width: 0px;
      }
    </style>
  </defs>
  <g id="Layer_1-2" data-name="Layer 1">
    <g>
      <path class="cls-1" d="M312.03,173.07c98.64,27.24,120.73,49.32,147.97,147.97,27.24-98.64,49.32-120.73,147.97-147.97-98.64-27.24-120.73-49.32-147.97-147.97-27.24,98.64-49.32,120.73-147.97,147.97ZM481.14,173.07c0,11.67-9.47,21.14-21.14,21.14-11.67,0-21.14-9.47-21.14-21.14s9.47-21.14,21.14-21.14c11.67,0,21.14,9.47,21.14,21.14Z"/>
      <path class="cls-1" d="M223.1,173.07c0,68.3,28.89,129.83,75.13,173.07C181.44,316.44,78.38,255.34,0,173.07,78.38,90.8,181.44,29.7,298.23,0c-46.24,43.24-75.13,104.77-75.13,173.07Z"/>
      <path class="cls-1" d="M920,173.07c-78.38,82.27-181.44,143.37-298.23,173.07,46.24-43.24,75.13-104.77,75.13-173.07S668.01,43.24,621.77,0c116.78,29.7,219.84,90.8,298.23,173.07Z"/>
    </g>
  </g>
</svg>